# xmcd CD database file
#
# Track frame offsets:
#	150
#	13199
#	24171
#	35846
#	45222
#	56350
#	69637
#	80294
#	91927
#	102889
#	116504
#	126217
#	136858
#	146291
#	156522
#	165945
#	177682
#	188217
#	198988
#	213673
#	223949
#	233670
#	245298
#	256392
#
# Disc length: 3578 seconds
#
# Revision: 0
# Processed by: cddbd v1.5.2PL0 Copyright (c) Steve Scherf et al.
# Submitted via: CDex 1.70beta1
#
DISCID=4b0df818
DTITLE=George Jones - 24 Greatest Hits
DYEAR=2005
DGENRE=Country
TTITLE0=When The Grass Grows Over Me
TTITLE1=Four-O-Thirty Three
TTITLE2=We Must Have Been Out Of Our Minds (with Melba Montgomery)
TTITLE3=Love Bug
TTITLE4=As Long As I Live
TTITLE5=She's Mine
TTITLE6=Tell Me My Lying Eyes Are Wrong
TTITLE7=Milwaukee, Here I Come (with Brenda Carter)
TTITLE8=I Can't Get There From Here
TTITLE9=If Not For You
TTITLE10=I've Got Five Dollars And It'sd Saturday Night (with Gene Pitney)
TTITLE11=Color Of The Blues
TTITLE12=Right Won't Touch A Hand
TTITLE13=Close Together (As You And Me) (with Melba Montgomery)
TTITLE14=Lonely Street
TTITLE15=I'll Follow You (Up To Our Cloud)
TTITLE16=Sometimes You Just Can't Win
TTITLE17=Party Pickin' (with Melba Montgomery)
TTITLE18=Where Grass Won't Grow
TTITLE19=Treasure Of Love
TTITLE20=I'm A People
TTITLE21=Small Time Laboring Man
TTITLE22=No Blues Is Good News
TTITLE23=I'll Fly Away
EXTD=YEAR: 2005
EXTT0=
EXTT1=
EXTT2=
EXTT3=
EXTT4=
EXTT5=
EXTT6=
EXTT7=
EXTT8=
EXTT9=
EXTT10=
EXTT11=
EXTT12=
EXTT13=
EXTT14=
EXTT15=
EXTT16=
EXTT17=
EXTT18=
EXTT19=
EXTT20=
EXTT21=
EXTT22=
EXTT23=
PLAYORDER=
